{"title":"Once Upon a Fores - C'era una volta nella foresta (1993).DVDrip.","uid":11762257,"size":1571634048,"categoryP":"video","categoryS":"movies","magnet":"?xt=urn:btih:26a6eb238912753b47815dd690e1af6c204049bd&amp;dn=Once+Upon+a+Fores+-+C%27era+una+volta+nella+foresta+%281993%29.DVDrip.&amp;tr=udp%3A%2F%2Ftracker.openbittorrent.com%3A80&amp;tr=udp%3A%2F%2Fopen.demonii.com%3A1337&amp;tr=udp%3A%2F%2Ftracker.coppersurfer.tk%3A6969&amp;tr=udp%3A%2F%2Fexodus.desync.com%3A6969","seeders":8,"leechers":1,"uploader":"robbyrs4","files":3,"time":1426617307,"description":"Once Upon a Fores - C'era una volta nella foresta (1993).DVDrip.XviD - Italian english.Ac3 - Multisub.MIRCrew\n\n\n\n[center]\n\n[color=red][b][img]http://s19.postimg.org/rr1b4yhxv/banner_mircrew_2015.png[/img]\n\n[u]NO FOUND ONLY ORIGINAL RELEASE[/u]\n\nOnce Upon a Fores - C'era una volta nella foresta (1993)\n\n[img]http://s19.postimg.org/6mjvr9n4j/image.jpg[/img]\n\n\n[URL=http://www.imdb.com/title/tt0107745/][IMG]http://www.userlogos.org/files/logos/Sucka/imdb_new.png[/IMG][/URL]  \n\n[img]http://s19.postimg.org/vz5tzn42b/1_scheda.png[/img]\n\nUn film di Charles Grosvenor. \nTitolo originale Once upon a Forest. \nAnimazione, Ratings: Kids, \ndurata 67 min. -\nUSA 1993.\n\n[img]http://s19.postimg.org/okgi79i6r/1_trama.png[/img]. \n\nUn cartone animato ecologico prodotto da Hanna e Barbera. Una foresta viene inondata da una nube tossica. Tra gli abitanti ci sono una talpa, un riccio e un topo. Una piccola creatura, Michelle, rimane intossicata e gli amici vanno alla ricerca di alcune erbe medicinali. ..................\n\n[img]http://s19.postimg.org/fzn6g380j/1_story.png[/img]\n\nThis animated wildlife film provides an environmental friendly message that humans are a malicious, careless breed. Three cherubic little animals have to rescue their friend who has been overcome by poisonous gas........\n &lt;a href=&quot;\nhttp://s19.postimg.org/47s06u6vn/vlcsnap_2015_03_17_18h27m35s2.png[/img]&quot; rel=&quot;nofollow&quot; target=&quot;_NEW&quot;&gt;\nhttp://s19.postimg.org/47s06u6vn/vlcsnap_2015_03_17_18h27m35s2.png[/img]&lt;/a&gt;\n &lt;a href=&quot;\nhttp://s19.postimg.org/46i2df51v/vlcsnap_2015_03_17_18h27m44s88.png[/img]&quot; rel=&quot;nofollow&quot; target=&quot;_NEW&quot;&gt;\nhttp://s19.postimg.org/46i2df51v/vlcsnap_2015_03_17_18h27m44s88.png[/img]&lt;/a&gt;\n\n\n\n[IMG]http://img153.imageshack.us/img153/3158/restateinseedblood.gif[/img]\n\n\n[img]http://imgur.com/lvhU6.gif[/img]\n\n\n[img]http://s19.postimg.org/a2jaz9qvn/1_dati.png[/img]\n\n\n[spoiler]\nGeneral\nComplete name                            : Once Upon a Forest (1993).ita.eng.multisub.MIRCrewOnce Upon a Forest (1993).ita.eng.multisub.MIRCrew.avi\nFormat                                   : AVI\nFormat/Info                              : Audio Video Interleave\nFile size                                : 1.46 GiB\nDuration                                 : 1h 7mn\nOverall bit rate                         : 3 074 Kbps\nWriting application                      : VirtualDubMod 1.5.4.1 (build 2178/release)\nWriting library                          : VirtualDubMod build 2178/release\n\nVideo\nID                                       : 0\nFormat                                   : MPEG-4 Visual\nFormat profile                           : Advanced Simple@L5\nFormat settings, BVOP                    : 1\nFormat settings, QPel                    : No\nFormat settings, GMC                     : No warppoints\nFormat settings, Matrix                  : Custom\nCodec ID                                 : XVID\nCodec ID/Hint                            : XviD\nDuration                                 : 1h 7mn\nBit rate                                 : 2 681 Kbps\nWidth                                    : 688 pixels\nHeight                                   : 512 pixels\nDisplay aspect ratio                     : 4:3\nFrame rate                               : 25.000 fps\nColor space                              : YUV\nChroma subsampling                       : 4:2:0\nBit depth                                : 8 bits\nScan type                                : Progressive\nCompression mode                         : Lossy\nBits/(Pixel*Frame)                       : 0.304\nStream size                              : 1.27 GiB (87%)\nWriting library                          : XviD 64\n\nAudio #1\nID                                       : 1\nFormat                                   : AC-3\nFormat/Info                              : Audio Coding 3\nFormat profile                           : Dolby Digital\nMode extension                           : CM (complete main)\nCodec ID                                 : 2000\nDuration                                 : 1h 7mn\nBit rate mode                            : Constant\nBit rate                                 : 192 Kbps\nChannel(s)                               : 2 channels\nChannel positions                        : Front: L R\nSampling rate                            : 48.0 KHz\nBit depth                                : 16 bits\nCompression mode                         : Lossy\nDelay relative to video                  : 17ms\nStream size                              : 93.2 MiB (6%)\nAlignment                                : Split accross interleaves\nInterleave, duration                     : 96 ms (2.40 video frames)\nInterleave, preload duration             : 96 ms\nLanguage                                 : Italian\n\nAudio #2\nID                                       : 2\nFormat                                   : AC-3\nFormat/Info                              : Audio Coding 3\nFormat profile                           : Dolby Digital\nMode extension                           : CM (complete main)\nCodec ID                                 : 2000\nDuration                                 : 1h 7mn\nBit rate mode                            : Constant\nBit rate                                 : 192 Kbps\nChannel(s)                               : 2 channels\nChannel positions                        : Front: L R\nSampling rate                            : 48.0 KHz\nBit depth                                : 16 bits\nCompression mode                         : Lossy\nDelay relative to video                  : 25ms\nStream size                              : 93.2 MiB (6%)\nAlignment                                : Split accross interleaves\nInterleave, duration                     : 96 ms (2.40 video frames)\nInterleave, preload duration             : 96 ms\nLanguage                                 : English\n\n\n\n[/spoiler]\n\n[/color][/b][/center]\n\n&amp;&amp;e4t67uk","torrent":{"xt":"urn:btih:26a6eb238912753b47815dd690e1af6c204049bd","amp;dn":"Once+Upon+a+Fores+-+C%27era+una+volta+nella+foresta+%281993%29.DVDrip.","amp;tr":["udp%3A%2F%2Ftracker.openbittorrent.com%3A80","udp%3A%2F%2Fopen.demonii.com%3A1337","udp%3A%2F%2Ftracker.coppersurfer.tk%3A6969","udp%3A%2F%2Fexodus.desync.com%3A6969"],"infoHash":"26a6eb238912753b47815dd690e1af6c204049bd","infoHashBuffer":{"type":"Buffer","data":[38,166,235,35,137,18,117,59,71,129,93,214,144,225,175,108,32,64,73,189]},"announce":[],"urlList":[]}}